G75*
%MOIN*%
%OFA0B0*%
%FSLAX24Y24*%
%IPPOS*%
%LPD*%
%AMOC8*
5,1,8,0,0,1.08239X$1,22.5*
%
%ADD10R,0.0217X0.0256*%
%ADD11R,0.0256X0.0217*%
%ADD12R,0.0591X0.0768*%
%ADD13R,0.0768X0.0591*%
%ADD14R,0.0354X0.0315*%
%ADD15R,0.0319X0.0120*%
%ADD16R,0.0472X0.0630*%
%ADD17R,0.0315X0.0354*%
%ADD18R,0.1969X0.1969*%
%ADD19C,0.0110*%
%ADD20R,0.0984X0.0984*%
%ADD21C,0.0138*%
%ADD22R,0.0472X0.0118*%
%ADD23R,0.0118X0.0472*%
%ADD24R,0.0591X0.0394*%
%ADD25R,0.0394X0.0472*%
%ADD26R,0.0500X0.0250*%
%ADD27R,0.1000X0.0500*%
%ADD28R,0.0165X0.0630*%
%ADD29R,0.0827X0.0827*%
%ADD30R,0.0591X0.0787*%
%ADD31R,0.0451X0.0767*%
%ADD32R,0.0217X0.0236*%
%ADD33R,0.1024X0.0315*%
%ADD34R,0.0228X0.0098*%
%ADD35R,0.0098X0.0228*%
%ADD36R,0.0098X0.0315*%
D10*
X010491Y002650D03*
X010925Y002650D03*
X013891Y002670D03*
X014325Y002670D03*
X008325Y020850D03*
X007891Y020850D03*
X007891Y021330D03*
X008325Y021330D03*
X008335Y022670D03*
X007901Y022670D03*
X007901Y023270D03*
X007901Y023680D03*
X007901Y024090D03*
X007901Y024500D03*
X007901Y024920D03*
X007901Y025330D03*
X008335Y025330D03*
X008335Y024920D03*
X008335Y024500D03*
X008335Y024090D03*
X008335Y023680D03*
X008335Y023270D03*
G36*
X013700Y033812D02*
X013548Y033660D01*
X013368Y033840D01*
X013520Y033992D01*
X013700Y033812D01*
G37*
G36*
X014006Y034118D02*
X013854Y033966D01*
X013674Y034146D01*
X013826Y034298D01*
X014006Y034118D01*
G37*
G36*
X014341Y034587D02*
X014189Y034739D01*
X014369Y034919D01*
X014521Y034767D01*
X014341Y034587D01*
G37*
G36*
X014647Y034281D02*
X014495Y034433D01*
X014675Y034613D01*
X014827Y034461D01*
X014647Y034281D01*
G37*
G36*
X014907Y035035D02*
X014755Y034883D01*
X014575Y035063D01*
X014727Y035215D01*
X014907Y035035D01*
G37*
G36*
X015213Y035341D02*
X015061Y035189D01*
X014881Y035369D01*
X015033Y035521D01*
X015213Y035341D01*
G37*
G36*
X014652Y036498D02*
X014804Y036346D01*
X014624Y036166D01*
X014472Y036318D01*
X014652Y036498D01*
G37*
G36*
X014346Y036805D02*
X014498Y036653D01*
X014318Y036473D01*
X014166Y036625D01*
X014346Y036805D01*
G37*
X013275Y038750D03*
X013275Y039194D03*
X012841Y039194D03*
X012841Y038750D03*
X018149Y037625D03*
X018582Y037625D03*
X018532Y035785D03*
X018099Y035785D03*
X018091Y035300D03*
X018524Y035300D03*
X018524Y034830D03*
X018091Y034830D03*
X018091Y034130D03*
X018524Y034130D03*
X019891Y032500D03*
X020325Y032500D03*
X020569Y037015D03*
X020567Y037435D03*
X021000Y037435D03*
X021002Y037015D03*
X019024Y039700D03*
X018591Y039700D03*
X006874Y035725D03*
X006875Y035075D03*
X006875Y034475D03*
X006441Y034475D03*
X005925Y034475D03*
X005491Y034475D03*
X005491Y035100D03*
X005491Y035737D03*
X005924Y035737D03*
X006441Y035725D03*
X006441Y035075D03*
X005925Y035100D03*
X005924Y036475D03*
X005491Y036475D03*
D11*
X007708Y036933D03*
X007708Y037367D03*
X008358Y038183D03*
X008358Y038617D03*
X009508Y039183D03*
X009508Y039617D03*
X009958Y039617D03*
X009958Y039183D03*
X010458Y038017D03*
X010458Y037583D03*
X011144Y039137D03*
X011552Y039140D03*
X011552Y039573D03*
X011144Y039570D03*
X008808Y034307D03*
X008808Y033874D03*
X008158Y033016D03*
X008158Y032583D03*
X006708Y032643D03*
X006708Y033077D03*
X006058Y033077D03*
X006058Y032644D03*
X005408Y032643D03*
X005408Y033076D03*
X005988Y024387D03*
X005988Y023953D03*
X012152Y032422D03*
X012152Y032855D03*
X012763Y032855D03*
X012763Y032422D03*
X013842Y032422D03*
X013842Y032855D03*
X014408Y032856D03*
X014408Y032423D03*
X014983Y032424D03*
X014983Y032857D03*
X017371Y033433D03*
X017371Y033866D03*
X017885Y033308D03*
X017885Y032875D03*
X018368Y032873D03*
X018368Y033307D03*
X018820Y033304D03*
X018820Y032871D03*
X017359Y034723D03*
X017359Y035156D03*
X017358Y035883D03*
X017358Y036316D03*
D12*
X021020Y038219D03*
X021020Y039301D03*
X009346Y038261D03*
X009346Y037179D03*
D13*
X018717Y038788D03*
X019799Y038788D03*
D14*
X008378Y037486D03*
X008378Y036934D03*
D15*
X004604Y036300D03*
X004604Y036103D03*
X004604Y035906D03*
X004131Y035906D03*
X004131Y036103D03*
X004131Y036300D03*
D16*
X020675Y034348D03*
X021856Y034348D03*
D17*
X021315Y033475D03*
X020764Y033475D03*
X020990Y036522D03*
X020439Y036522D03*
X008384Y020370D03*
X007832Y020370D03*
D18*
G36*
X011958Y037091D02*
X013349Y035700D01*
X011958Y034309D01*
X010567Y035700D01*
X011958Y037091D01*
G37*
D19*
X012470Y037465D02*
X012620Y037615D01*
X012481Y037754D02*
X012331Y037604D01*
X012192Y037744D02*
X012342Y037894D01*
X012203Y038033D02*
X012053Y037883D01*
X011863Y037883D02*
X011713Y038033D01*
X011574Y037894D02*
X011724Y037744D01*
X011585Y037604D02*
X011435Y037754D01*
X011296Y037615D02*
X011446Y037465D01*
X011306Y037326D02*
X011156Y037476D01*
X011017Y037337D02*
X011167Y037187D01*
X011028Y037048D02*
X010878Y037198D01*
X010739Y037058D02*
X010889Y036908D01*
X010750Y036769D02*
X010600Y036919D01*
X010460Y036780D02*
X010610Y036630D01*
X010471Y036491D02*
X010321Y036641D01*
X010182Y036502D02*
X010332Y036352D01*
X010193Y036212D02*
X010043Y036362D01*
X009904Y036223D02*
X010054Y036073D01*
X009915Y035934D02*
X009765Y036084D01*
X009625Y035945D02*
X009775Y035795D01*
X009775Y035605D02*
X009625Y035455D01*
X009765Y035316D02*
X009915Y035466D01*
X010054Y035327D02*
X009904Y035177D01*
X010043Y035038D02*
X010193Y035188D01*
X010332Y035048D02*
X010182Y034898D01*
X010321Y034759D02*
X010471Y034909D01*
X010610Y034770D02*
X010460Y034620D01*
X010600Y034481D02*
X010750Y034631D01*
X010889Y034492D02*
X010739Y034342D01*
X010878Y034203D02*
X011028Y034353D01*
X011167Y034213D02*
X011017Y034063D01*
X011156Y033924D02*
X011306Y034074D01*
X011446Y033935D02*
X011296Y033785D01*
X011435Y033646D02*
X011585Y033796D01*
X011724Y033657D02*
X011574Y033507D01*
X011713Y033367D02*
X011863Y033517D01*
X012053Y033517D02*
X012203Y033367D01*
X012342Y033507D02*
X012192Y033657D01*
X012331Y033796D02*
X012481Y033646D01*
X012620Y033785D02*
X012470Y033935D01*
X012610Y034074D02*
X012760Y033924D01*
X012899Y034063D02*
X012749Y034213D01*
X012888Y034353D02*
X013038Y034203D01*
X013177Y034342D02*
X013027Y034492D01*
X013166Y034631D02*
X013316Y034481D01*
X013456Y034620D02*
X013306Y034770D01*
X013445Y034909D02*
X013595Y034759D01*
X013734Y034898D02*
X013584Y035048D01*
X013723Y035188D02*
X013873Y035038D01*
X014012Y035177D02*
X013862Y035327D01*
X014002Y035466D02*
X014152Y035316D01*
X014291Y035455D02*
X014141Y035605D01*
X014141Y035795D02*
X014291Y035945D01*
X014152Y036084D02*
X014002Y035934D01*
X013862Y036073D02*
X014012Y036223D01*
X013873Y036362D02*
X013723Y036212D01*
X013584Y036352D02*
X013734Y036502D01*
X013595Y036641D02*
X013445Y036491D01*
X013306Y036630D02*
X013456Y036780D01*
X013316Y036919D02*
X013166Y036769D01*
X013027Y036908D02*
X013177Y037058D01*
X013038Y037198D02*
X012888Y037048D01*
X012749Y037187D02*
X012899Y037337D01*
X012760Y037476D02*
X012610Y037326D01*
D20*
X016158Y037850D03*
D21*
X016286Y038509D02*
X016286Y038647D01*
X016542Y038647D02*
X016542Y038509D01*
X016817Y038234D02*
X016955Y038234D01*
X016955Y037978D02*
X016817Y037978D01*
X016817Y037722D02*
X016955Y037722D01*
X016955Y037466D02*
X016817Y037466D01*
X016542Y037191D02*
X016542Y037053D01*
X016286Y037053D02*
X016286Y037191D01*
X016030Y037191D02*
X016030Y037053D01*
X015774Y037053D02*
X015774Y037191D01*
X015499Y037466D02*
X015361Y037466D01*
X015361Y037722D02*
X015499Y037722D01*
X015499Y037978D02*
X015361Y037978D01*
X015361Y038234D02*
X015499Y038234D01*
X015774Y038509D02*
X015774Y038647D01*
X016030Y038647D02*
X016030Y038509D01*
D22*
X014672Y023376D03*
X014672Y023180D03*
X014672Y022983D03*
X014672Y022786D03*
X014672Y022589D03*
X014672Y022392D03*
X014672Y022195D03*
X014672Y021998D03*
X014672Y021802D03*
X014672Y021605D03*
X014672Y021408D03*
X014672Y021211D03*
X014672Y021014D03*
X014672Y020817D03*
X014672Y020620D03*
X014672Y020424D03*
X010184Y020424D03*
X010184Y020620D03*
X010184Y020817D03*
X010184Y021014D03*
X010184Y021211D03*
X010184Y021408D03*
X010184Y021605D03*
X010184Y021802D03*
X010184Y021998D03*
X010184Y022195D03*
X010184Y022392D03*
X010184Y022589D03*
X010184Y022786D03*
X010184Y022983D03*
X010184Y023180D03*
X010184Y023376D03*
D23*
X010952Y024144D03*
X011148Y024144D03*
X011345Y024144D03*
X011542Y024144D03*
X011739Y024144D03*
X011936Y024144D03*
X012133Y024144D03*
X012330Y024144D03*
X012526Y024144D03*
X012723Y024144D03*
X012920Y024144D03*
X013117Y024144D03*
X013314Y024144D03*
X013511Y024144D03*
X013707Y024144D03*
X013904Y024144D03*
X013904Y019656D03*
X013707Y019656D03*
X013511Y019656D03*
X013314Y019656D03*
X013117Y019656D03*
X012920Y019656D03*
X012723Y019656D03*
X012526Y019656D03*
X012330Y019656D03*
X012133Y019656D03*
X011936Y019656D03*
X011739Y019656D03*
X011542Y019656D03*
X011345Y019656D03*
X011148Y019656D03*
X010952Y019656D03*
D24*
X005415Y001344D03*
X005415Y003156D03*
X008801Y003156D03*
X008801Y001344D03*
X015715Y001344D03*
X015715Y003156D03*
X019101Y003156D03*
X019101Y001344D03*
X005601Y027094D03*
X005601Y028906D03*
X002215Y028906D03*
X002215Y027094D03*
D25*
X013794Y038710D03*
X013794Y039410D03*
X014542Y039410D03*
X014542Y038710D03*
X014572Y002090D03*
X013824Y002090D03*
X011092Y002060D03*
X010344Y002060D03*
D26*
X008762Y021825D03*
X008762Y022195D03*
D27*
X006506Y022010D03*
D28*
X005620Y038538D03*
X005364Y038538D03*
X005108Y038538D03*
X004852Y038538D03*
X004596Y038538D03*
D29*
X003828Y038794D03*
X006387Y038794D03*
D30*
X006899Y039818D03*
X003317Y039818D03*
D31*
X004708Y039830D03*
X005508Y039810D03*
D32*
X019333Y037806D03*
X019333Y037294D03*
X020062Y037550D03*
X019333Y036156D03*
X019333Y035644D03*
X019333Y034806D03*
X019333Y034294D03*
X020062Y034550D03*
X020733Y035244D03*
X020733Y035756D03*
X020062Y035900D03*
X021462Y035500D03*
D33*
G36*
X010875Y032969D02*
X010151Y032245D01*
X009929Y032467D01*
X010653Y033191D01*
X010875Y032969D01*
G37*
G36*
X010458Y033386D02*
X009734Y032662D01*
X009512Y032884D01*
X010236Y033608D01*
X010458Y033386D01*
G37*
G36*
X010040Y033804D02*
X009316Y033080D01*
X009094Y033302D01*
X009818Y034026D01*
X010040Y033804D01*
G37*
D34*
X020952Y032697D03*
X020952Y032500D03*
X020952Y032303D03*
X021464Y032303D03*
X021464Y032500D03*
X021464Y032697D03*
D35*
X021208Y032717D03*
X021208Y032283D03*
D36*
X008408Y035247D03*
X008211Y035247D03*
X008014Y035247D03*
X008014Y035700D03*
X008211Y035700D03*
X008408Y035700D03*
M02*
