G75*
%MOIN*%
%OFA0B0*%
%FSLAX24Y24*%
%IPPOS*%
%LPD*%
%AMOC8*
5,1,8,0,0,1.08239X$1,22.5*
%
%ADD10C,0.0100*%
%ADD11C,0.0000*%
D10*
X000898Y000450D02*
X000908Y040500D01*
X023908Y040500D01*
X023898Y000450D01*
X000898Y000450D01*
D11*
X001283Y001450D02*
X001285Y001500D01*
X001291Y001549D01*
X001301Y001598D01*
X001314Y001645D01*
X001332Y001692D01*
X001353Y001737D01*
X001377Y001780D01*
X001405Y001821D01*
X001436Y001860D01*
X001470Y001896D01*
X001507Y001930D01*
X001547Y001960D01*
X001588Y001987D01*
X001632Y002011D01*
X001677Y002031D01*
X001724Y002047D01*
X001772Y002060D01*
X001821Y002069D01*
X001871Y002074D01*
X001920Y002075D01*
X001970Y002072D01*
X002019Y002065D01*
X002068Y002054D01*
X002115Y002040D01*
X002161Y002021D01*
X002206Y001999D01*
X002249Y001974D01*
X002289Y001945D01*
X002327Y001913D01*
X002363Y001879D01*
X002396Y001841D01*
X002425Y001801D01*
X002451Y001759D01*
X002474Y001715D01*
X002493Y001669D01*
X002509Y001622D01*
X002521Y001573D01*
X002529Y001524D01*
X002533Y001475D01*
X002533Y001425D01*
X002529Y001376D01*
X002521Y001327D01*
X002509Y001278D01*
X002493Y001231D01*
X002474Y001185D01*
X002451Y001141D01*
X002425Y001099D01*
X002396Y001059D01*
X002363Y001021D01*
X002327Y000987D01*
X002289Y000955D01*
X002249Y000926D01*
X002206Y000901D01*
X002161Y000879D01*
X002115Y000860D01*
X002068Y000846D01*
X002019Y000835D01*
X001970Y000828D01*
X001920Y000825D01*
X001871Y000826D01*
X001821Y000831D01*
X001772Y000840D01*
X001724Y000853D01*
X001677Y000869D01*
X001632Y000889D01*
X001588Y000913D01*
X001547Y000940D01*
X001507Y000970D01*
X001470Y001004D01*
X001436Y001040D01*
X001405Y001079D01*
X001377Y001120D01*
X001353Y001163D01*
X001332Y001208D01*
X001314Y001255D01*
X001301Y001302D01*
X001291Y001351D01*
X001285Y001400D01*
X001283Y001450D01*
X022283Y001450D02*
X022285Y001500D01*
X022291Y001549D01*
X022301Y001598D01*
X022314Y001645D01*
X022332Y001692D01*
X022353Y001737D01*
X022377Y001780D01*
X022405Y001821D01*
X022436Y001860D01*
X022470Y001896D01*
X022507Y001930D01*
X022547Y001960D01*
X022588Y001987D01*
X022632Y002011D01*
X022677Y002031D01*
X022724Y002047D01*
X022772Y002060D01*
X022821Y002069D01*
X022871Y002074D01*
X022920Y002075D01*
X022970Y002072D01*
X023019Y002065D01*
X023068Y002054D01*
X023115Y002040D01*
X023161Y002021D01*
X023206Y001999D01*
X023249Y001974D01*
X023289Y001945D01*
X023327Y001913D01*
X023363Y001879D01*
X023396Y001841D01*
X023425Y001801D01*
X023451Y001759D01*
X023474Y001715D01*
X023493Y001669D01*
X023509Y001622D01*
X023521Y001573D01*
X023529Y001524D01*
X023533Y001475D01*
X023533Y001425D01*
X023529Y001376D01*
X023521Y001327D01*
X023509Y001278D01*
X023493Y001231D01*
X023474Y001185D01*
X023451Y001141D01*
X023425Y001099D01*
X023396Y001059D01*
X023363Y001021D01*
X023327Y000987D01*
X023289Y000955D01*
X023249Y000926D01*
X023206Y000901D01*
X023161Y000879D01*
X023115Y000860D01*
X023068Y000846D01*
X023019Y000835D01*
X022970Y000828D01*
X022920Y000825D01*
X022871Y000826D01*
X022821Y000831D01*
X022772Y000840D01*
X022724Y000853D01*
X022677Y000869D01*
X022632Y000889D01*
X022588Y000913D01*
X022547Y000940D01*
X022507Y000970D01*
X022470Y001004D01*
X022436Y001040D01*
X022405Y001079D01*
X022377Y001120D01*
X022353Y001163D01*
X022332Y001208D01*
X022314Y001255D01*
X022301Y001302D01*
X022291Y001351D01*
X022285Y001400D01*
X022283Y001450D01*
X022283Y039450D02*
X022285Y039500D01*
X022291Y039549D01*
X022301Y039598D01*
X022314Y039645D01*
X022332Y039692D01*
X022353Y039737D01*
X022377Y039780D01*
X022405Y039821D01*
X022436Y039860D01*
X022470Y039896D01*
X022507Y039930D01*
X022547Y039960D01*
X022588Y039987D01*
X022632Y040011D01*
X022677Y040031D01*
X022724Y040047D01*
X022772Y040060D01*
X022821Y040069D01*
X022871Y040074D01*
X022920Y040075D01*
X022970Y040072D01*
X023019Y040065D01*
X023068Y040054D01*
X023115Y040040D01*
X023161Y040021D01*
X023206Y039999D01*
X023249Y039974D01*
X023289Y039945D01*
X023327Y039913D01*
X023363Y039879D01*
X023396Y039841D01*
X023425Y039801D01*
X023451Y039759D01*
X023474Y039715D01*
X023493Y039669D01*
X023509Y039622D01*
X023521Y039573D01*
X023529Y039524D01*
X023533Y039475D01*
X023533Y039425D01*
X023529Y039376D01*
X023521Y039327D01*
X023509Y039278D01*
X023493Y039231D01*
X023474Y039185D01*
X023451Y039141D01*
X023425Y039099D01*
X023396Y039059D01*
X023363Y039021D01*
X023327Y038987D01*
X023289Y038955D01*
X023249Y038926D01*
X023206Y038901D01*
X023161Y038879D01*
X023115Y038860D01*
X023068Y038846D01*
X023019Y038835D01*
X022970Y038828D01*
X022920Y038825D01*
X022871Y038826D01*
X022821Y038831D01*
X022772Y038840D01*
X022724Y038853D01*
X022677Y038869D01*
X022632Y038889D01*
X022588Y038913D01*
X022547Y038940D01*
X022507Y038970D01*
X022470Y039004D01*
X022436Y039040D01*
X022405Y039079D01*
X022377Y039120D01*
X022353Y039163D01*
X022332Y039208D01*
X022314Y039255D01*
X022301Y039302D01*
X022291Y039351D01*
X022285Y039400D01*
X022283Y039450D01*
X001283Y039450D02*
X001285Y039500D01*
X001291Y039549D01*
X001301Y039598D01*
X001314Y039645D01*
X001332Y039692D01*
X001353Y039737D01*
X001377Y039780D01*
X001405Y039821D01*
X001436Y039860D01*
X001470Y039896D01*
X001507Y039930D01*
X001547Y039960D01*
X001588Y039987D01*
X001632Y040011D01*
X001677Y040031D01*
X001724Y040047D01*
X001772Y040060D01*
X001821Y040069D01*
X001871Y040074D01*
X001920Y040075D01*
X001970Y040072D01*
X002019Y040065D01*
X002068Y040054D01*
X002115Y040040D01*
X002161Y040021D01*
X002206Y039999D01*
X002249Y039974D01*
X002289Y039945D01*
X002327Y039913D01*
X002363Y039879D01*
X002396Y039841D01*
X002425Y039801D01*
X002451Y039759D01*
X002474Y039715D01*
X002493Y039669D01*
X002509Y039622D01*
X002521Y039573D01*
X002529Y039524D01*
X002533Y039475D01*
X002533Y039425D01*
X002529Y039376D01*
X002521Y039327D01*
X002509Y039278D01*
X002493Y039231D01*
X002474Y039185D01*
X002451Y039141D01*
X002425Y039099D01*
X002396Y039059D01*
X002363Y039021D01*
X002327Y038987D01*
X002289Y038955D01*
X002249Y038926D01*
X002206Y038901D01*
X002161Y038879D01*
X002115Y038860D01*
X002068Y038846D01*
X002019Y038835D01*
X001970Y038828D01*
X001920Y038825D01*
X001871Y038826D01*
X001821Y038831D01*
X001772Y038840D01*
X001724Y038853D01*
X001677Y038869D01*
X001632Y038889D01*
X001588Y038913D01*
X001547Y038940D01*
X001507Y038970D01*
X001470Y039004D01*
X001436Y039040D01*
X001405Y039079D01*
X001377Y039120D01*
X001353Y039163D01*
X001332Y039208D01*
X001314Y039255D01*
X001301Y039302D01*
X001291Y039351D01*
X001285Y039400D01*
X001283Y039450D01*
M02*
